<!--?xml version="1.0" standalone="no"?-->
              <svg id="sw-js-blob-svg" viewBox="0 0 100 100" xmlns="http://www.w3.org/2000/svg" version="1.1">
                    <defs> 
                        <linearGradient id="sw-gradient" x1="0" x2="1" y1="1" y2="0">
                            <stop id="stop1" stop-color="rgba(6, 143, 255, 1)" offset="0%"></stop>
                            <stop id="stop2" stop-color="rgba(0, 136.817, 248.668, 1)" offset="100%"></stop>
                        </linearGradient>
                    </defs>
                <path fill="url(#sw-gradient)" d="M15.8,-30.4C19.4,-25.2,20.7,-19,24.7,-13.7C28.6,-8.5,35.2,-4.2,35.3,0.1C35.5,4.4,29.3,8.9,25.5,14.3C21.7,19.8,20.3,26.2,16.4,28.2C12.6,30.2,6.3,27.8,-1,29.5C-8.3,31.2,-16.5,37.1,-23.4,36.8C-30.2,36.5,-35.7,30.1,-37.5,23C-39.4,15.8,-37.6,7.9,-35.9,1C-34.2,-6,-32.6,-12,-29.8,-17.3C-26.9,-22.6,-22.7,-27.3,-17.5,-31.6C-12.3,-35.9,-6.2,-39.8,-0.1,-39.7C6.1,-39.6,12.1,-35.5,15.8,-30.4Z" width="100%" height="100%" transform="translate(50 50)" stroke-width="0" style="transition: all 0.3s ease 0s;" stroke="url(#sw-gradient)"></path>
              </svg>